Coordinates
version=1
nRows=5
nColumns=40
inDegrees=yes

Units are S.I. units (second, meters, Newtons, ...)
Angles are in degrees.

endheader
time	pelvis_tilt	pelvis_list	pelvis_rotation	pelvis_tx	pelvis_ty	pelvis_tz	hip_flexion_r	hip_adduction_r	hip_rotation_r	knee_angle_r	knee_angle_r_beta	ankle_angle_r	subtalar_angle_r	mtp_angle_r	hip_flexion_l	hip_adduction_l	hip_rotation_l	knee_angle_l	knee_angle_l_beta	ankle_angle_l	subtalar_angle_l	mtp_angle_l	lumbar_extension	lumbar_bending	lumbar_rotation	arm_flex_r	arm_add_r	arm_rot_r	elbow_flex_r	pro_sup_r	wrist_flex_r	wrist_dev_r	arm_flex_l	arm_add_l	arm_rot_l	elbow_flex_l	pro_sup_l	wrist_flex_l	wrist_dev_l
     19.41000000	     -2.70261995	     -7.25125111	      3.17108611	      1.12935457	      0.92808030	      0.46050924	      9.82766538	      6.88087378	    -16.34640270	     17.21608338	     17.21608338	     12.11149478	     -5.21079536	     -0.52130141	     28.69131291	    -15.64994787	      2.08813797	     69.43320523	     69.43320523	      7.09926808	    -19.40164626	     18.39684311	     -8.43203437	      6.57452718	      2.29205672	     13.74355748	    -13.72987587	     -4.11036811	     58.92638424	     45.66578989	      0.00000000	      0.00000000	     11.46900934	     -7.37053272	     -6.00975598	     34.49138625	     45.42846428	      0.00000000	      0.00000000
     19.42121429	     -2.85321610	     -7.15287855	      3.44632294	      1.12794220	      0.92858776	      0.46106137	      9.06576940	      6.94587478	    -16.41532977	     16.51161508	     16.51161508	     12.23639854	     -5.06589316	     -0.56967854	     30.48955463	    -15.42566250	      1.84386570	     67.83395746	     67.83395746	      8.45538448	    -19.42527953	     19.85091991	     -8.41109098	      6.34215879	      2.11745521	     15.89393337	    -14.00826533	     -3.90376692	     62.44202146	     45.53913136	      0.00000000	      0.00000000	     10.43374404	     -7.26477458	     -5.88775960	     31.58073515	     45.44496666	      0.00000000	      0.00000000
     19.43242857	     -2.96547171	     -7.02244517	      3.70233496	      1.12661693	      0.92912374	      0.46157193	      8.21005241	      6.98812393	    -16.51066345	     15.70371244	     15.70371244	     12.34210839	     -4.80893818	     -0.68022560	     31.95161712	    -15.14994018	      1.47714609	     65.82097681	     65.82097681	      9.37986135	    -19.44785254	     20.54049929	     -8.50095833	      6.10119281	      2.37155297	     17.57446845	    -14.53958007	     -3.97271424	     66.77851262	     45.39945577	      0.00000000	      0.00000000	      9.63099300	     -7.02924335	     -5.78509648	     28.69468386	     45.49615702	      0.00000000	      0.00000000
     19.44364286	     -3.07220447	     -6.90737538	      3.96296936	      1.12535556	      0.92957990	      0.46201670	      7.35602599	      7.04928324	    -16.57431608	     14.89706961	     14.89706961	     12.46864223	     -4.57748365	     -0.60891200	     33.17041355	    -14.80568668	      1.13302031	     63.45748568	     63.45748568	     10.00790128	    -19.46289574	     20.67436605	     -8.57012991	      5.86191827	      1.96313961	     20.21994710	    -14.37362467	     -4.29974459	     69.36558984	     45.33625881	      0.00000000	      0.00000000	      8.06777066	     -7.08906282	     -5.70000205	     27.13916214	     45.47865166	      0.00000000	      0.00000000
     19.45485714	     -3.21392092	     -6.81854014	      4.20529759	      1.12405912	      0.92983552	      0.46234447	      6.56670647	      7.11438834	    -16.71602030	     14.12886312	     14.12886312	     12.58796210	     -4.20789976	     -0.64751782	     34.27352703	    -14.39048389	      0.84997755	     60.84996487	     60.84996487	     10.47380539	    -19.44513751	     20.88817118	     -8.62339793	      5.68461454	      1.88197514	     22.46490692	    -14.56411055	     -4.42470621	     72.64122587	     45.24339048	      0.00000000	      0.00000000	      6.85804688	     -7.02843893	     -5.55116951	     25.26984695	     45.46960853	      0.00000000	      0.00000000
